<svg xmlns="http://www.w3.org/2000/svg" xmlns:xlink="http://www.w3.org/1999/xlink" width="850" height="711.3"><rect width="850" height="711.3" rx="5" ry="5" class="a"/><svg y="0%" x="0%"><circle cx="20" cy="20" r="6" fill="#ff5f58"/><circle cx="40" cy="20" r="6" fill="#ffbd2e"/><circle cx="60" cy="20" r="6" fill="#18c132"/></svg><svg height="651.3" viewBox="0 0 80 65.13" width="800" x="20" xmlns="http://www.w3.org/2000/svg" xmlns:xlink="http://www.w3.org/1999/xlink" y="50"><style>@keyframes p{0%{transform:translateX(0)}.4%{transform:translateX(-80px)}1.3%{transform:translateX(-240px)}11%{transform:translateX(-320px)}11.6%{transform:translateX(-400px)}14.8%{transform:translateX(-480px)}19.9%{transform:translateX(-560px)}24.1%{transform:translateX(-640px)}24.8%{transform:translateX(-720px)}25.2%{transform:translateX(-800px)}29.1%{transform:translateX(-880px)}42.2%{transform:translateX(-960px)}43%{transform:translateX(-1040px)}45.2%{transform:translateX(-1120px)}46%{transform:translateX(-1200px)}48.7%{transform:translateX(-1280px)}49.5%{transform:translateX(-1360px)}52.5%{transform:translateX(-1440px)}54.5%{transform:translateX(-1520px)}55.3%{transform:translateX(-1600px)}56.5%{transform:translateX(-1680px)}57.3%{transform:translateX(-1760px)}58.3%{transform:translateX(-1840px)}59.1%{transform:translateX(-1920px)}63.1%{transform:translateX(-2080px)}63.4%{transform:translateX(-2160px)}63.9%{transform:translateX(-2320px)}65%{transform:translateX(-2480px)}66.1%{transform:translateX(-2640px)}67.2%{transform:translateX(-2800px)}68.3%{transform:translateX(-2960px)}69.4%{transform:translateX(-3120px)}70.5%{transform:translateX(-3280px)}71.6%{transform:translateX(-3520px)}72.7%{transform:translateX(-3680px)}73.9%{transform:translateX(-3840px)}74.9%{transform:translateX(-4000px)}76%{transform:translateX(-4160px)}77.2%{transform:translateX(-4320px)}78%{transform:translateX(-4880px)}78.4%{transform:translateX(-4960px)}78.5%{transform:translateX(-5040px)}to{transform:translateX(-5120px)}}.a{fill:#212121}.g{fill:#e54b4b}.h{fill:#9ece58}.i{fill:#eceff1}.j{fill:#d0d0d0}.k{fill:#2ddafd;font-weight:700}.l{fill:#82aaff}.r{fill:#e54b4b;font-weight:700}</style><g font-size="1.67" font-family="Monaco,Consolas,Menlo,'Bitstream Vera Sans Mono','Powerline Symbols',monospace"><defs><symbol id="1"><text y="1.67" fill="#396fe2">~/demo/bitbrew</text></symbol><symbol id="2"><text y="1.67" class="g">❯</text></symbol><symbol id="3"><text y="1.67" class="g">❯</text><text x="2.004" y="1.67" class="h">bitbrew</text></symbol><symbol id="4"><text y="1.67" class="g">❯</text><text x="2.004" y="1.67" class="h">bitbrew</text><text x="10.02" y="1.67" class="i">search</text></symbol><symbol id="5"><text y="1.67" class="g">❯</text><text x="2.004" y="1.67" class="h">bitbrew</text><text x="10.02" y="1.67" class="i">search</text><text x="17.034" y="1.67" class="i">docker</text></symbol><symbol id="6"><text y="1.67" class="j">⠋</text><text x="3.006" y="1.67" class="i">Searching...</text></symbol><symbol id="7"><text y="1.67" class="j">⠙</text><text x="3.006" y="1.67" class="i">Searching...</text></symbol><symbol id="8"><text y="1.67" class="j">⠹</text><text x="3.006" y="1.67" class="i">Searching...</text></symbol><symbol id="9"><text y="1.67" class="i"></text><text x="3.006" y="1.67" class="i">Searching...</text></symbol><symbol id="10"><text y="1.67" class="j">⠦</text><text x="3.006" y="1.67" class="i">Searching...</text></symbol><symbol id="11"><text y="1.67" class="j">⠧</text><text x="3.006" y="1.67" class="i">Searching...</text></symbol><symbol id="12"><text y="1.67" class="h">✔</text><text x="2.004" y="1.67" class="h">3</text><text x="4.008" y="1.67" class="h">plugins</text><text x="12.024" y="1.67" class="h">hit</text></symbol><symbol id="13"><text x="9.018" y="1.67" class="k">NAME</text><text x="31.062" y="1.67" class="k">FILENAME</text><text x="59.118" y="1.67" class="k">DESCRIPTION</text></symbol><symbol id="14"><text x="2.004" y="1.67" class="h">Docker-Sync</text><text x="14.028" y="1.67" class="h">Status</text><text x="23.046" y="1.67" class="l">docker-sync-status.1m.sh</text><text x="50.1" y="1.67" class="j">Display</text><text x="58.116" y="1.67" class="j">the</text><text x="62.124" y="1.67" class="j">current</text><text x="70.14" y="1.67" class="j">status</text><text x="77.154" y="1.67" class="j">of</text></symbol><symbol id="15"><text x="50.1" y="1.67" class="j">docker-sync.</text></symbol><symbol id="16"><text x="2.004" y="1.67" class="h">Docker</text><text x="9.018" y="1.67" class="h">Status</text><text x="23.046" y="1.67" class="l">docker-status.1m.sh</text><text x="50.1" y="1.67" class="j">Displays</text><text x="59.118" y="1.67" class="j">the</text><text x="63.126" y="1.67" class="j">status</text><text x="70.14" y="1.67" class="j">of</text><text x="73.146" y="1.67" class="j">docker</text></symbol><symbol id="17"><text x="50.1" y="1.67" class="j">machines</text></symbol><symbol id="18"><text x="2.004" y="1.67" class="h">Machine</text><text x="10.02" y="1.67" class="h">Box</text><text x="23.046" y="1.67" class="l">machinebox.1m.sh</text></symbol><symbol id="19"><text y="1.67" fill="#bb80b3">❯</text></symbol><symbol id="a"><path fill="transparent" d="M0 0h80v31H0z"/></symbol><symbol id="b"><path fill="#64ffff" d="M0 0h1.102v2.171H0z"/></symbol></defs><path class="a" d="M0 0h80v65.13H0z"/><g style="animation-duration:9.283524s;animation-iteration-count:infinite;animation-name:p;animation-timing-function:steps(1,end)"><svg width="5200"><svg><use xlink:href="#a"/><use xlink:href="#b" x="-.004"/></svg><svg x="80"><use xlink:href="#a"/><use xlink:href="#b" x="-.004"/></svg><svg x="160"><use xlink:href="#a"/><use xlink:href="#b" x="1.996" y="4.317"/><use xlink:href="#1" y="2.171"/><use xlink:href="#2" y="4.342"/></svg><svg x="240"><use xlink:href="#a"/><use xlink:href="#b" x="1.996" y="4.317"/><use xlink:href="#1" y="2.171"/><use xlink:href="#2" y="4.342"/></svg><svg x="320"><use xlink:href="#a"/><use xlink:href="#b" x="2.996" y="4.317"/><use xlink:href="#1" y="2.171"/><text y="6.012" class="g">❯</text><text x="2.004" y="6.012" class="r">b</text></svg><svg x="400"><use xlink:href="#a"/><use xlink:href="#b" x="3.996" y="4.317"/><use xlink:href="#1" y="2.171"/><text y="6.012" class="g">❯</text><text x="2.004" y="6.012" class="r">bi</text></svg><svg x="480"><use xlink:href="#a"/><use xlink:href="#b" x="4.996" y="4.317"/><use xlink:href="#1" y="2.171"/><text y="6.012" class="g">❯</text><text x="2.004" y="6.012" class="r">bit</text></svg><svg x="560"><use xlink:href="#a"/><use xlink:href="#b" x="5.996" y="4.317"/><use xlink:href="#1" y="2.171"/><text y="6.012" class="g">❯</text><text x="2.004" y="6.012" class="r">bitb</text></svg><svg x="640"><use xlink:href="#a"/><use xlink:href="#b" x="6.996" y="4.317"/><use xlink:href="#1" y="2.171"/><text y="6.012" class="g">❯</text><text x="2.004" y="6.012" class="r">bitbr</text></svg><svg x="720"><use xlink:href="#a"/><use xlink:href="#b" x="7.996" y="4.317"/><use xlink:href="#1" y="2.171"/><text y="6.012" class="g">❯</text><text x="2.004" y="6.012" class="r">bitbre</text></svg><svg x="800"><use xlink:href="#a"/><use xlink:href="#b" x="8.996" y="4.317"/><use xlink:href="#1" y="2.171"/><use xlink:href="#3" y="4.342"/></svg><svg x="880"><use xlink:href="#a"/><use xlink:href="#b" x="9.996" y="4.317"/><use xlink:href="#1" y="2.171"/><use xlink:href="#3" y="4.342"/></svg><svg x="960"><use xlink:href="#a"/><use xlink:href="#b" x="10.996" y="4.317"/><use xlink:href="#1" y="2.171"/><text y="6.012" class="g">❯</text><text x="2.004" y="6.012" class="h">bitbrew</text><text x="10.02" y="6.012" class="i">s</text></svg><svg x="1040"><use xlink:href="#a"/><use xlink:href="#b" x="11.996" y="4.317"/><use xlink:href="#1" y="2.171"/><text y="6.012" class="g">❯</text><text x="2.004" y="6.012" class="h">bitbrew</text><text x="10.02" y="6.012" class="i">se</text></svg><svg x="1120"><use xlink:href="#a"/><use xlink:href="#b" x="12.996" y="4.317"/><use xlink:href="#1" y="2.171"/><text y="6.012" class="g">❯</text><text x="2.004" y="6.012" class="h">bitbrew</text><text x="10.02" y="6.012" class="i">sea</text></svg><svg x="1200"><use xlink:href="#a"/><use xlink:href="#b" x="13.996" y="4.317"/><use xlink:href="#1" y="2.171"/><text y="6.012" class="g">❯</text><text x="2.004" y="6.012" class="h">bitbrew</text><text x="10.02" y="6.012" class="i">sear</text></svg><svg x="1280"><use xlink:href="#a"/><use xlink:href="#b" x="14.996" y="4.317"/><use xlink:href="#1" y="2.171"/><text y="6.012" class="g">❯</text><text x="2.004" y="6.012" class="h">bitbrew</text><text x="10.02" y="6.012" class="i">searc</text></svg><svg x="1360"><use xlink:href="#a"/><use xlink:href="#b" x="15.996" y="4.317"/><use xlink:href="#1" y="2.171"/><use xlink:href="#4" y="4.342"/></svg><svg x="1440"><use xlink:href="#a"/><use xlink:href="#b" x="16.996" y="4.317"/><use xlink:href="#1" y="2.171"/><use xlink:href="#4" y="4.342"/></svg><svg x="1520"><use xlink:href="#a"/><use xlink:href="#b" x="17.996" y="4.317"/><use xlink:href="#1" y="2.171"/><text y="6.012" class="g">❯</text><text x="2.004" y="6.012" class="h">bitbrew</text><text x="10.02" y="6.012" class="i">search</text><text x="17.034" y="6.012" class="i">d</text></svg><svg x="1600"><use xlink:href="#a"/><use xlink:href="#b" x="18.996" y="4.317"/><use xlink:href="#1" y="2.171"/><text y="6.012" class="g">❯</text><text x="2.004" y="6.012" class="h">bitbrew</text><text x="10.02" y="6.012" class="i">search</text><text x="17.034" y="6.012" class="i">do</text></svg><svg x="1680"><use xlink:href="#a"/><use xlink:href="#b" x="19.996" y="4.317"/><use xlink:href="#1" y="2.171"/><text y="6.012" class="g">❯</text><text x="2.004" y="6.012" class="h">bitbrew</text><text x="10.02" y="6.012" class="i">search</text><text x="17.034" y="6.012" class="i">doc</text></svg><svg x="1760"><use xlink:href="#a"/><use xlink:href="#b" x="20.996" y="4.317"/><use xlink:href="#1" y="2.171"/><text y="6.012" class="g">❯</text><text x="2.004" y="6.012" class="h">bitbrew</text><text x="10.02" y="6.012" class="i">search</text><text x="17.034" y="6.012" class="i">dock</text></svg><svg x="1840"><use xlink:href="#a"/><use xlink:href="#b" x="21.996" y="4.317"/><use xlink:href="#1" y="2.171"/><text y="6.012" class="g">❯</text><text x="2.004" y="6.012" class="h">bitbrew</text><text x="10.02" y="6.012" class="i">search</text><text x="17.034" y="6.012" class="i">docke</text></svg><svg x="1920"><use xlink:href="#a"/><use xlink:href="#b" x="22.996" y="4.317"/><use xlink:href="#1" y="2.171"/><use xlink:href="#5" y="4.342"/></svg><svg x="2000"><use xlink:href="#a"/><use xlink:href="#b" x="-.004" y="6.488"/><use xlink:href="#1" y="2.171"/><use xlink:href="#5" y="4.342"/></svg><svg x="2080"><use xlink:href="#a"/><use xlink:href="#b" x="-.004" y="6.488"/><use xlink:href="#1" y="2.171"/><use xlink:href="#5" y="4.342"/></svg><svg x="2160"><use xlink:href="#a"/><use xlink:href="#b" x="-.004" y="6.488"/><use xlink:href="#1" y="2.171"/><use xlink:href="#5" y="4.342"/></svg><svg x="2240"><use xlink:href="#a"/><use xlink:href="#1" y="2.171"/><use xlink:href="#5" y="4.342"/></svg><svg x="2320"><use xlink:href="#a"/><use xlink:href="#1" y="2.171"/><use xlink:href="#5" y="4.342"/><use xlink:href="#6" y="6.513"/></svg><svg x="2400"><use xlink:href="#a"/><use xlink:href="#1" y="2.171"/><use xlink:href="#5" y="4.342"/><use xlink:href="#6" y="6.513"/></svg><svg x="2480"><use xlink:href="#a"/><use xlink:href="#1" y="2.171"/><use xlink:href="#5" y="4.342"/><use xlink:href="#7" y="6.513"/></svg><svg x="2560"><use xlink:href="#a"/><use xlink:href="#1" y="2.171"/><use xlink:href="#5" y="4.342"/><use xlink:href="#7" y="6.513"/></svg><svg x="2640"><use xlink:href="#a"/><use xlink:href="#1" y="2.171"/><use xlink:href="#5" y="4.342"/><use xlink:href="#8" y="6.513"/></svg><svg x="2720"><use xlink:href="#a"/><use xlink:href="#1" y="2.171"/><use xlink:href="#5" y="4.342"/><text y="8.183" class="i">Searching...</text></svg><svg x="2800"><use xlink:href="#a"/><use xlink:href="#1" y="2.171"/><use xlink:href="#5" y="4.342"/><text y="8.183" class="j">⠸</text><text x="3.006" y="8.183" class="i">Searching...</text></svg><svg x="2880"><use xlink:href="#a"/><use xlink:href="#1" y="2.171"/><use xlink:href="#5" y="4.342"/><use xlink:href="#9" y="6.513"/></svg><svg x="2960"><use xlink:href="#a"/><use xlink:href="#1" y="2.171"/><use xlink:href="#5" y="4.342"/><text y="8.183" class="j">⠼</text><text x="3.006" y="8.183" class="i">Searching...</text></svg><svg x="3040"><use xlink:href="#a"/><use xlink:href="#1" y="2.171"/><use xlink:href="#5" y="4.342"/><text y="8.183" class="i">earching...</text></svg><svg x="3120"><use xlink:href="#a"/><use xlink:href="#1" y="2.171"/><use xlink:href="#5" y="4.342"/><text y="8.183" class="j">⠴</text><text x="3.006" y="8.183" class="i">Searching...</text></svg><svg x="3200"><use xlink:href="#a"/><use xlink:href="#1" y="2.171"/><use xlink:href="#5" y="4.342"/><text y="8.183" class="i"></text></svg><svg x="3280"><use xlink:href="#a"/><use xlink:href="#1" y="2.171"/><use xlink:href="#5" y="4.342"/><use xlink:href="#10" y="6.513"/></svg><svg x="3360"><use xlink:href="#a"/><use xlink:href="#1" y="2.171"/><use xlink:href="#5" y="4.342"/><use xlink:href="#10" y="6.513"/></svg><svg x="3440"><use xlink:href="#a"/><use xlink:href="#1" y="2.171"/><use xlink:href="#5" y="4.342"/></svg><svg x="3520"><use xlink:href="#a"/><use xlink:href="#1" y="2.171"/><use xlink:href="#5" y="4.342"/><use xlink:href="#11" y="6.513"/></svg><svg x="3600"><use xlink:href="#a"/><use xlink:href="#1" y="2.171"/><use xlink:href="#5" y="4.342"/><use xlink:href="#11" y="6.513"/></svg><svg x="3680"><use xlink:href="#a"/><use xlink:href="#1" y="2.171"/><use xlink:href="#5" y="4.342"/><text y="8.183" class="j">⠇</text><text x="3.006" y="8.183" class="i">Searching...</text></svg><svg x="3760"><use xlink:href="#a"/><use xlink:href="#1" y="2.171"/><use xlink:href="#5" y="4.342"/><use xlink:href="#9" y="6.513"/></svg><svg x="3840"><use xlink:href="#a"/><use xlink:href="#1" y="2.171"/><use xlink:href="#5" y="4.342"/><text y="8.183" class="j">⠏</text><text x="3.006" y="8.183" class="i">Searching...</text></svg><svg x="3920"><use xlink:href="#a"/><use xlink:href="#1" y="2.171"/><use xlink:href="#5" y="4.342"/><use xlink:href="#9" y="6.513"/></svg><svg x="4000"><use xlink:href="#a"/><use xlink:href="#1" y="2.171"/><use xlink:href="#5" y="4.342"/><use xlink:href="#6" y="6.513"/></svg><svg x="4080"><use xlink:href="#a"/><use xlink:href="#1" y="2.171"/><use xlink:href="#5" y="4.342"/><text y="8.183" class="i"></text><text x="3.006" y="8.183" class="i">Searching...</text></svg><svg x="4160"><use xlink:href="#a"/><use xlink:href="#1" y="2.171"/><use xlink:href="#5" y="4.342"/><use xlink:href="#7" y="6.513"/></svg><svg x="4240"><use xlink:href="#a"/><use xlink:href="#1" y="2.171"/><use xlink:href="#5" y="4.342"/><text y="8.183" class="i">rching...</text></svg><svg x="4320"><use xlink:href="#a"/><use xlink:href="#1" y="2.171"/><use xlink:href="#5" y="4.342"/><use xlink:href="#8" y="6.513"/></svg><svg x="4400"><use xlink:href="#a"/><use xlink:href="#b" x="8.996" y="6.488"/><use xlink:href="#1" y="2.171"/><use xlink:href="#5" y="4.342"/><text y="8.183" class="i">ing...</text></svg><svg x="4480"><use xlink:href="#a"/><use xlink:href="#b" x="-.004" y="8.659"/><use xlink:href="#1" y="2.171"/><use xlink:href="#5" y="4.342"/><use xlink:href="#12" y="6.513"/></svg><svg x="4560"><use xlink:href="#a"/><use xlink:href="#b" x="-.004" y="17.343"/><use xlink:href="#1" y="2.171"/><use xlink:href="#5" y="4.342"/><use xlink:href="#12" y="6.513"/><use xlink:href="#13" y="13.026"/></svg><svg x="4640"><use xlink:href="#a"/><use xlink:href="#b" x="-.004" y="30.369"/><use xlink:href="#1" y="2.171"/><use xlink:href="#5" y="4.342"/><use xlink:href="#12" y="6.513"/><use xlink:href="#13" y="13.026"/><use xlink:href="#14" y="21.71"/><use xlink:href="#15" y="26.052"/></svg><svg x="4720"><use xlink:href="#a"/><use xlink:href="#b" x="-.004" y="47.737"/><use xlink:href="#1" y="2.171"/><use xlink:href="#5" y="4.342"/><use xlink:href="#12" y="6.513"/><use xlink:href="#13" y="13.026"/><use xlink:href="#14" y="21.71"/><use xlink:href="#15" y="26.052"/><use xlink:href="#16" y="30.394"/><use xlink:href="#17" y="34.736"/><use xlink:href="#18" y="39.078"/></svg><svg x="4800"><use xlink:href="#a"/><use xlink:href="#b" x="-.004" y="47.737"/><use xlink:href="#1" y="2.171"/><use xlink:href="#5" y="4.342"/><use xlink:href="#12" y="6.513"/><use xlink:href="#13" y="13.026"/><use xlink:href="#14" y="21.71"/><use xlink:href="#15" y="26.052"/><use xlink:href="#16" y="30.394"/><use xlink:href="#17" y="34.736"/><use xlink:href="#18" y="39.078"/></svg><svg x="4880"><use xlink:href="#a"/><use xlink:href="#b" x="-.004" y="47.737"/><use xlink:href="#1" y="2.171"/><use xlink:href="#5" y="4.342"/><use xlink:href="#12" y="6.513"/><use xlink:href="#13" y="13.026"/><use xlink:href="#14" y="21.71"/><use xlink:href="#15" y="26.052"/><use xlink:href="#16" y="30.394"/><use xlink:href="#17" y="34.736"/><use xlink:href="#18" y="39.078"/></svg><svg x="4960"><use xlink:href="#a"/><use xlink:href="#b" x="-.004" y="47.737"/><use xlink:href="#1" y="2.171"/><use xlink:href="#5" y="4.342"/><use xlink:href="#12" y="6.513"/><use xlink:href="#13" y="13.026"/><use xlink:href="#14" y="21.71"/><use xlink:href="#15" y="26.052"/><use xlink:href="#16" y="30.394"/><use xlink:href="#17" y="34.736"/><use xlink:href="#18" y="39.078"/></svg><svg x="5040"><use xlink:href="#a"/><use xlink:href="#b" x="1.996" y="52.079"/><use xlink:href="#1" y="2.171"/><use xlink:href="#5" y="4.342"/><use xlink:href="#12" y="6.513"/><use xlink:href="#13" y="13.026"/><use xlink:href="#14" y="21.71"/><use xlink:href="#15" y="26.052"/><use xlink:href="#16" y="30.394"/><use xlink:href="#17" y="34.736"/><use xlink:href="#18" y="39.078"/><use xlink:href="#1" y="49.933"/><use xlink:href="#19" y="52.104"/></svg><svg x="5120"><use xlink:href="#a"/><use xlink:href="#b" x="-.004" y="54.25"/><use xlink:href="#1" y="2.171"/><use xlink:href="#5" y="4.342"/><use xlink:href="#12" y="6.513"/><use xlink:href="#13" y="13.026"/><use xlink:href="#14" y="21.71"/><use xlink:href="#15" y="26.052"/><use xlink:href="#16" y="30.394"/><use xlink:href="#17" y="34.736"/><use xlink:href="#18" y="39.078"/><use xlink:href="#1" y="49.933"/><use xlink:href="#19" y="52.104"/></svg></svg></g></g></svg></svg>