<svg xmlns="http://www.w3.org/2000/svg" xmlns:xlink="http://www.w3.org/1999/xlink" width="850" height="711.3"><rect width="850" height="711.3" rx="5" ry="5" class="a"/><svg y="0%" x="0%"><circle cx="20" cy="20" r="6" fill="#ff5f58"/><circle cx="40" cy="20" r="6" fill="#ffbd2e"/><circle cx="60" cy="20" r="6" fill="#18c132"/></svg><svg height="651.3" viewBox="0 0 80 65.13" width="800" x="20" xmlns="http://www.w3.org/2000/svg" xmlns:xlink="http://www.w3.org/1999/xlink" y="50"><style>@keyframes o{0%{transform:translateX(0)}.4%{transform:translateX(-80px)}1.6%{transform:translateX(-160px)}15.4%{transform:translateX(-240px)}16.1%{transform:translateX(-320px)}17.9%{transform:translateX(-400px)}22.2%{transform:translateX(-480px)}26.1%{transform:translateX(-560px)}27%{transform:translateX(-640px)}27.5%{transform:translateX(-720px)}31.3%{transform:translateX(-800px)}35.3%{transform:translateX(-880px)}36.6%{transform:translateX(-960px)}39.3%{transform:translateX(-1040px)}40.9%{transform:translateX(-1120px)}47.7%{transform:translateX(-1280px)}48%{transform:translateX(-1360px)}48.7%{transform:translateX(-1520px)}50%{transform:translateX(-1680px)}51.2%{transform:translateX(-1840px)}52.5%{transform:translateX(-2000px)}53.8%{transform:translateX(-2160px)}55%{transform:translateX(-2320px)}56.3%{transform:translateX(-2480px)}57.6%{transform:translateX(-2640px)}58.9%{transform:translateX(-2800px)}60.1%{transform:translateX(-2880px)}60.2%{transform:translateX(-2960px)}61.5%{transform:translateX(-3120px)}62.8%{transform:translateX(-3280px)}64.1%{transform:translateX(-3440px)}65.4%{transform:translateX(-3600px)}66.6%{transform:translateX(-3760px)}67.9%{transform:translateX(-3920px)}69.2%{transform:translateX(-4080px)}70.5%{transform:translateX(-4240px)}71.8%{transform:translateX(-4400px)}73.1%{transform:translateX(-4560px)}74.4%{transform:translateX(-4960px)}74.8%{transform:translateX(-5040px)}74.9%{transform:translateX(-5120px)}to{transform:translateX(-5200px)}}.a{fill:#212121}.g{fill:#e54b4b}.h{fill:#9ece58}.i{fill:#eceff1}.j{fill:#d0d0d0}.k{fill:#faed70}.q{fill:#e54b4b;font-weight:700}</style><g font-size="1.67" font-family="Monaco,Consolas,Menlo,'Bitstream Vera Sans Mono','Powerline Symbols',monospace"><defs><symbol id="1"><text y="1.67" fill="#396fe2">~/demo/bitbrew</text></symbol><symbol id="2"><text y="1.67" class="g">❯</text><text x="2.004" y="1.67" class="h">bitbrew</text></symbol><symbol id="3"><text y="1.67" class="g">❯</text><text x="2.004" y="1.67" class="h">bitbrew</text><text x="10.02" y="1.67" class="i">sync</text></symbol><symbol id="4"><text y="1.67" class="j">⠋</text><text x="3.006" y="1.67" class="i">Syncing...</text></symbol><symbol id="5"><text y="1.67" class="j">⠙</text><text x="3.006" y="1.67" class="i">Syncing...</text></symbol><symbol id="6"><text y="1.67" class="j">⠹</text><text x="3.006" y="1.67" class="i">Syncing...</text></symbol><symbol id="7"><text y="1.67" class="i">...</text></symbol><symbol id="8"><text y="1.67" class="j">⠸</text><text x="3.006" y="1.67" class="i">Syncing...</text></symbol><symbol id="9"><text y="1.67" class="j">⠼</text><text x="3.006" y="1.67" class="i">Syncing...</text></symbol><symbol id="10"><text y="1.67" class="j">⠴</text><text x="3.006" y="1.67" class="i">Syncing...</text></symbol><symbol id="11"><text y="1.67" class="i">ncing...</text></symbol><symbol id="12"><text y="1.67" class="j">⠦</text><text x="3.006" y="1.67" class="i">Syncing...</text></symbol><symbol id="13"><text y="1.67" class="j">⠧</text><text x="3.006" y="1.67" class="i">Syncing...</text></symbol><symbol id="14"><text y="1.67" class="j">⠇</text><text x="3.006" y="1.67" class="i">Syncing...</text></symbol><symbol id="15"><text y="1.67" class="j">⠏</text><text x="3.006" y="1.67" class="i">Syncing...</text></symbol><symbol id="16"><text y="1.67" class="i"></text><text x="3.006" y="1.67" class="i">Syncing...</text></symbol><symbol id="17"><text y="1.67" class="i">Syncing...</text></symbol><symbol id="18"><text y="1.67" class="i"></text><text x="3.006" y="1.67" class="i">Syncing...</text></symbol><symbol id="19"><text y="1.67" class="h">✔</text><text x="2.004" y="1.67" class="h">last.30s.sh</text><text x="14.028" y="1.67" class="h">installed!</text></symbol><symbol id="20"><text y="1.67" class="h">✔</text><text x="2.004" y="1.67" class="h">brew-services.10m.rb</text><text x="23.046" y="1.67" class="h">installed!</text></symbol><symbol id="21"><text y="1.67" class="h">✔</text><text x="2.004" y="1.67" class="h">coin-alert.5s.sh</text><text x="19.038" y="1.67" class="h">installed!</text></symbol><symbol id="22"><text y="1.67" class="h">✔</text><text x="2.004" y="1.67" class="h">launch-agents.10s.sh</text><text x="23.046" y="1.67" class="h">installed!</text></symbol><symbol id="23"><text y="1.67" class="h">✔</text><text x="2.004" y="1.67" class="h">worktime-tracker.1s.rb</text><text x="25.05" y="1.67" class="h">installed!</text></symbol><symbol id="24"><text y="1.67" class="h">✔</text><text x="2.004" y="1.67" class="h">bitping.10s.sh</text><text x="17.034" y="1.67" class="h">installed!</text></symbol><symbol id="25"><text y="1.67" class="h">✔</text><text x="2.004" y="1.67" class="h">pomodoro.1s.sh</text><text x="17.034" y="1.67" class="h">installed!</text></symbol><symbol id="26"><text y="1.67" class="h">✔</text><text x="2.004" y="1.67" class="h">ad-pass-expiry.sh</text><text x="20.04" y="1.67" class="h">installed!</text></symbol><symbol id="27"><text y="1.67" class="h">✔</text><text x="2.004" y="1.67" class="h">btcmarkets.10s.sh</text><text x="20.04" y="1.67" class="h">installed!</text></symbol><symbol id="28"><text y="1.67" class="h">✔</text><text x="2.004" y="1.67" class="h">c20.py</text><text x="9.018" y="1.67" class="h">installed!</text></symbol><symbol id="29"><text y="1.67" class="h">✔</text><text x="2.004" y="1.67" class="h">umbrella_status.15m.sh</text><text x="25.05" y="1.67" class="h">installed!</text></symbol><symbol id="30"><text y="1.67" class="h">✔</text><text x="2.004" y="1.67" class="h">clipboard-base64-encoder.sh</text><text x="30.06" y="1.67" class="h">installed!</text></symbol><symbol id="31"><text y="1.67" class="k">✔</text><text x="2.004" y="1.67" class="k">99-crypto.py</text><text x="15.03" y="1.67" class="k">uninstalled!</text></symbol><symbol id="32"><text y="1.67" class="k">✔</text><text x="2.004" y="1.67" class="k">CryptoPrices.5m.sh</text><text x="21.042" y="1.67" class="k">uninstalled!</text></symbol><symbol id="33"><text y="1.67" fill="#bb80b3">❯</text></symbol><symbol id="a"><path fill="transparent" d="M0 0h80v31H0z"/></symbol><symbol id="b"><path fill="#64ffff" d="M0 0h1.102v2.171H0z"/></symbol></defs><path class="a" d="M0 0h80v65.13H0z"/><g style="animation-duration:7.961054999999998s;animation-iteration-count:infinite;animation-name:o;animation-timing-function:steps(1,end)"><svg width="5280"><svg><use xlink:href="#a"/><use xlink:href="#b" x="-.004"/></svg><svg x="80"><use xlink:href="#a"/><use xlink:href="#b" x="-.004"/></svg><svg x="160"><use xlink:href="#a"/><use xlink:href="#b" x="1.996" y="4.317"/><use xlink:href="#1" y="2.171"/><text y="6.012" class="g">❯</text></svg><svg x="240"><use xlink:href="#a"/><use xlink:href="#b" x="2.996" y="4.317"/><use xlink:href="#1" y="2.171"/><text y="6.012" class="g">❯</text><text x="2.004" y="6.012" class="q">b</text></svg><svg x="320"><use xlink:href="#a"/><use xlink:href="#b" x="3.996" y="4.317"/><use xlink:href="#1" y="2.171"/><text y="6.012" class="g">❯</text><text x="2.004" y="6.012" class="q">bi</text></svg><svg x="400"><use xlink:href="#a"/><use xlink:href="#b" x="4.996" y="4.317"/><use xlink:href="#1" y="2.171"/><text y="6.012" class="g">❯</text><text x="2.004" y="6.012" class="q">bit</text></svg><svg x="480"><use xlink:href="#a"/><use xlink:href="#b" x="5.996" y="4.317"/><use xlink:href="#1" y="2.171"/><text y="6.012" class="g">❯</text><text x="2.004" y="6.012" class="q">bitb</text></svg><svg x="560"><use xlink:href="#a"/><use xlink:href="#b" x="6.996" y="4.317"/><use xlink:href="#1" y="2.171"/><text y="6.012" class="g">❯</text><text x="2.004" y="6.012" class="q">bitbr</text></svg><svg x="640"><use xlink:href="#a"/><use xlink:href="#b" x="7.996" y="4.317"/><use xlink:href="#1" y="2.171"/><text y="6.012" class="g">❯</text><text x="2.004" y="6.012" class="q">bitbre</text></svg><svg x="720"><use xlink:href="#a"/><use xlink:href="#b" x="8.996" y="4.317"/><use xlink:href="#1" y="2.171"/><use xlink:href="#2" y="4.342"/></svg><svg x="800"><use xlink:href="#a"/><use xlink:href="#b" x="9.996" y="4.317"/><use xlink:href="#1" y="2.171"/><use xlink:href="#2" y="4.342"/></svg><svg x="880"><use xlink:href="#a"/><use xlink:href="#b" x="10.996" y="4.317"/><use xlink:href="#1" y="2.171"/><text y="6.012" class="g">❯</text><text x="2.004" y="6.012" class="h">bitbrew</text><text x="10.02" y="6.012" class="i">s</text></svg><svg x="960"><use xlink:href="#a"/><use xlink:href="#b" x="11.996" y="4.317"/><use xlink:href="#1" y="2.171"/><text y="6.012" class="g">❯</text><text x="2.004" y="6.012" class="h">bitbrew</text><text x="10.02" y="6.012" class="i">sy</text></svg><svg x="1040"><use xlink:href="#a"/><use xlink:href="#b" x="12.996" y="4.317"/><use xlink:href="#1" y="2.171"/><text y="6.012" class="g">❯</text><text x="2.004" y="6.012" class="h">bitbrew</text><text x="10.02" y="6.012" class="i">syn</text></svg><svg x="1120"><use xlink:href="#a"/><use xlink:href="#b" x="13.996" y="4.317"/><use xlink:href="#1" y="2.171"/><use xlink:href="#3" y="4.342"/></svg><svg x="1200"><use xlink:href="#a"/><use xlink:href="#b" x="-.004" y="6.488"/><use xlink:href="#1" y="2.171"/><use xlink:href="#3" y="4.342"/></svg><svg x="1280"><use xlink:href="#a"/><use xlink:href="#b" x="-.004" y="6.488"/><use xlink:href="#1" y="2.171"/><use xlink:href="#3" y="4.342"/></svg><svg x="1360"><use xlink:href="#a"/><use xlink:href="#b" x="-.004" y="6.488"/><use xlink:href="#1" y="2.171"/><use xlink:href="#3" y="4.342"/></svg><svg x="1440"><use xlink:href="#a"/><use xlink:href="#1" y="2.171"/><use xlink:href="#3" y="4.342"/></svg><svg x="1520"><use xlink:href="#a"/><use xlink:href="#1" y="2.171"/><use xlink:href="#3" y="4.342"/><use xlink:href="#4" y="6.513"/></svg><svg x="1600"><use xlink:href="#a"/><use xlink:href="#1" y="2.171"/><use xlink:href="#3" y="4.342"/><use xlink:href="#4" y="6.513"/></svg><svg x="1680"><use xlink:href="#a"/><use xlink:href="#1" y="2.171"/><use xlink:href="#3" y="4.342"/><use xlink:href="#5" y="6.513"/></svg><svg x="1760"><use xlink:href="#a"/><use xlink:href="#1" y="2.171"/><use xlink:href="#3" y="4.342"/><text y="8.183" class="i"></text></svg><svg x="1840"><use xlink:href="#a"/><use xlink:href="#1" y="2.171"/><use xlink:href="#3" y="4.342"/><use xlink:href="#6" y="6.513"/></svg><svg x="1920"><use xlink:href="#a"/><use xlink:href="#1" y="2.171"/><use xlink:href="#3" y="4.342"/><use xlink:href="#7" y="6.513"/></svg><svg x="2000"><use xlink:href="#a"/><use xlink:href="#1" y="2.171"/><use xlink:href="#3" y="4.342"/><use xlink:href="#8" y="6.513"/></svg><svg x="2080"><use xlink:href="#a"/><use xlink:href="#1" y="2.171"/><use xlink:href="#3" y="4.342"/><text y="8.183" class="i">.</text></svg><svg x="2160"><use xlink:href="#a"/><use xlink:href="#1" y="2.171"/><use xlink:href="#3" y="4.342"/><use xlink:href="#9" y="6.513"/></svg><svg x="2240"><use xlink:href="#a"/><use xlink:href="#1" y="2.171"/><use xlink:href="#3" y="4.342"/><text y="8.183" class="i">cing...</text></svg><svg x="2320"><use xlink:href="#a"/><use xlink:href="#1" y="2.171"/><use xlink:href="#3" y="4.342"/><use xlink:href="#10" y="6.513"/></svg><svg x="2400"><use xlink:href="#a"/><use xlink:href="#1" y="2.171"/><use xlink:href="#3" y="4.342"/><use xlink:href="#11" y="6.513"/></svg><svg x="2480"><use xlink:href="#a"/><use xlink:href="#1" y="2.171"/><use xlink:href="#3" y="4.342"/><use xlink:href="#12" y="6.513"/></svg><svg x="2560"><use xlink:href="#a"/><use xlink:href="#1" y="2.171"/><use xlink:href="#3" y="4.342"/><use xlink:href="#11" y="6.513"/></svg><svg x="2640"><use xlink:href="#a"/><use xlink:href="#1" y="2.171"/><use xlink:href="#3" y="4.342"/><use xlink:href="#13" y="6.513"/></svg><svg x="2720"><use xlink:href="#a"/><use xlink:href="#1" y="2.171"/><use xlink:href="#3" y="4.342"/><use xlink:href="#13" y="6.513"/></svg><svg x="2800"><use xlink:href="#a"/><use xlink:href="#1" y="2.171"/><use xlink:href="#3" y="4.342"/><use xlink:href="#14" y="6.513"/></svg><svg x="2880"><use xlink:href="#a"/><use xlink:href="#1" y="2.171"/><use xlink:href="#3" y="4.342"/><use xlink:href="#14" y="6.513"/></svg><svg x="2960"><use xlink:href="#a"/><use xlink:href="#1" y="2.171"/><use xlink:href="#3" y="4.342"/><use xlink:href="#15" y="6.513"/></svg><svg x="3040"><use xlink:href="#a"/><use xlink:href="#1" y="2.171"/><use xlink:href="#3" y="4.342"/><use xlink:href="#16" y="6.513"/></svg><svg x="3120"><use xlink:href="#a"/><use xlink:href="#1" y="2.171"/><use xlink:href="#3" y="4.342"/><use xlink:href="#4" y="6.513"/></svg><svg x="3200"><use xlink:href="#a"/><use xlink:href="#1" y="2.171"/><use xlink:href="#3" y="4.342"/><use xlink:href="#4" y="6.513"/></svg><svg x="3280"><use xlink:href="#a"/><use xlink:href="#1" y="2.171"/><use xlink:href="#3" y="4.342"/><use xlink:href="#5" y="6.513"/></svg><svg x="3360"><use xlink:href="#a"/><use xlink:href="#1" y="2.171"/><use xlink:href="#3" y="4.342"/><use xlink:href="#17" y="6.513"/></svg><svg x="3440"><use xlink:href="#a"/><use xlink:href="#1" y="2.171"/><use xlink:href="#3" y="4.342"/><use xlink:href="#6" y="6.513"/></svg><svg x="3520"><use xlink:href="#a"/><use xlink:href="#1" y="2.171"/><use xlink:href="#3" y="4.342"/><use xlink:href="#16" y="6.513"/></svg><svg x="3600"><use xlink:href="#a"/><use xlink:href="#1" y="2.171"/><use xlink:href="#3" y="4.342"/><use xlink:href="#8" y="6.513"/></svg><svg x="3680"><use xlink:href="#a"/><use xlink:href="#1" y="2.171"/><use xlink:href="#3" y="4.342"/><use xlink:href="#8" y="6.513"/></svg><svg x="3760"><use xlink:href="#a"/><use xlink:href="#1" y="2.171"/><use xlink:href="#3" y="4.342"/><use xlink:href="#9" y="6.513"/></svg><svg x="3840"><use xlink:href="#a"/><use xlink:href="#1" y="2.171"/><use xlink:href="#3" y="4.342"/><text y="8.183" class="i">ng...</text></svg><svg x="3920"><use xlink:href="#a"/><use xlink:href="#1" y="2.171"/><use xlink:href="#3" y="4.342"/><use xlink:href="#10" y="6.513"/></svg><svg x="4000"><use xlink:href="#a"/><use xlink:href="#1" y="2.171"/><use xlink:href="#3" y="4.342"/><use xlink:href="#17" y="6.513"/></svg><svg x="4080"><use xlink:href="#a"/><use xlink:href="#1" y="2.171"/><use xlink:href="#3" y="4.342"/><use xlink:href="#12" y="6.513"/></svg><svg x="4160"><use xlink:href="#a"/><use xlink:href="#1" y="2.171"/><use xlink:href="#3" y="4.342"/><use xlink:href="#12" y="6.513"/></svg><svg x="4240"><use xlink:href="#a"/><use xlink:href="#1" y="2.171"/><use xlink:href="#3" y="4.342"/><use xlink:href="#13" y="6.513"/></svg><svg x="4320"><use xlink:href="#a"/><use xlink:href="#1" y="2.171"/><use xlink:href="#3" y="4.342"/><use xlink:href="#18" y="6.513"/></svg><svg x="4400"><use xlink:href="#a"/><use xlink:href="#1" y="2.171"/><use xlink:href="#3" y="4.342"/><use xlink:href="#14" y="6.513"/></svg><svg x="4480"><use xlink:href="#a"/><use xlink:href="#1" y="2.171"/><use xlink:href="#3" y="4.342"/><use xlink:href="#18" y="6.513"/></svg><svg x="4560"><use xlink:href="#a"/><use xlink:href="#1" y="2.171"/><use xlink:href="#3" y="4.342"/><use xlink:href="#15" y="6.513"/></svg><svg x="4640"><use xlink:href="#a"/><use xlink:href="#1" y="2.171"/><use xlink:href="#3" y="4.342"/><use xlink:href="#15" y="6.513"/></svg><svg x="4720"><use xlink:href="#a"/><use xlink:href="#b" x="9.996" y="6.488"/><use xlink:href="#1" y="2.171"/><use xlink:href="#3" y="4.342"/><use xlink:href="#7" y="6.513"/></svg><svg x="4800"><use xlink:href="#a"/><use xlink:href="#b" x="-.004" y="23.856"/><use xlink:href="#1" y="2.171"/><use xlink:href="#3" y="4.342"/><use xlink:href="#19" y="6.513"/><use xlink:href="#20" y="8.684"/><use xlink:href="#21" y="10.855"/><use xlink:href="#22" y="13.026"/><use xlink:href="#23" y="15.197"/><use xlink:href="#24" y="17.368"/><use xlink:href="#25" y="19.539"/><use xlink:href="#26" y="21.71"/></svg><svg x="4880"><use xlink:href="#a"/><use xlink:href="#b" x="-.004" y="36.882"/><use xlink:href="#1" y="2.171"/><use xlink:href="#3" y="4.342"/><use xlink:href="#19" y="6.513"/><use xlink:href="#20" y="8.684"/><use xlink:href="#21" y="10.855"/><use xlink:href="#22" y="13.026"/><use xlink:href="#23" y="15.197"/><use xlink:href="#24" y="17.368"/><use xlink:href="#25" y="19.539"/><use xlink:href="#26" y="21.71"/><use xlink:href="#27" y="23.881"/><use xlink:href="#28" y="26.052"/><use xlink:href="#29" y="28.223"/><use xlink:href="#30" y="30.394"/><use xlink:href="#31" y="32.565"/><use xlink:href="#32" y="34.736"/></svg><svg x="4960"><use xlink:href="#a"/><use xlink:href="#b" x="-.004" y="36.882"/><use xlink:href="#1" y="2.171"/><use xlink:href="#3" y="4.342"/><use xlink:href="#19" y="6.513"/><use xlink:href="#20" y="8.684"/><use xlink:href="#21" y="10.855"/><use xlink:href="#22" y="13.026"/><use xlink:href="#23" y="15.197"/><use xlink:href="#24" y="17.368"/><use xlink:href="#25" y="19.539"/><use xlink:href="#26" y="21.71"/><use xlink:href="#27" y="23.881"/><use xlink:href="#28" y="26.052"/><use xlink:href="#29" y="28.223"/><use xlink:href="#30" y="30.394"/><use xlink:href="#31" y="32.565"/><use xlink:href="#32" y="34.736"/></svg><svg x="5040"><use xlink:href="#a"/><use xlink:href="#b" x="-.004" y="36.882"/><use xlink:href="#1" y="2.171"/><use xlink:href="#3" y="4.342"/><use xlink:href="#19" y="6.513"/><use xlink:href="#20" y="8.684"/><use xlink:href="#21" y="10.855"/><use xlink:href="#22" y="13.026"/><use xlink:href="#23" y="15.197"/><use xlink:href="#24" y="17.368"/><use xlink:href="#25" y="19.539"/><use xlink:href="#26" y="21.71"/><use xlink:href="#27" y="23.881"/><use xlink:href="#28" y="26.052"/><use xlink:href="#29" y="28.223"/><use xlink:href="#30" y="30.394"/><use xlink:href="#31" y="32.565"/><use xlink:href="#32" y="34.736"/></svg><svg x="5120"><use xlink:href="#a"/><use xlink:href="#b" x="1.996" y="41.224"/><use xlink:href="#1" y="2.171"/><use xlink:href="#3" y="4.342"/><use xlink:href="#19" y="6.513"/><use xlink:href="#20" y="8.684"/><use xlink:href="#21" y="10.855"/><use xlink:href="#22" y="13.026"/><use xlink:href="#23" y="15.197"/><use xlink:href="#24" y="17.368"/><use xlink:href="#25" y="19.539"/><use xlink:href="#26" y="21.71"/><use xlink:href="#27" y="23.881"/><use xlink:href="#28" y="26.052"/><use xlink:href="#29" y="28.223"/><use xlink:href="#30" y="30.394"/><use xlink:href="#31" y="32.565"/><use xlink:href="#32" y="34.736"/><use xlink:href="#1" y="39.078"/><use xlink:href="#33" y="41.249"/></svg><svg x="5200"><use xlink:href="#a"/><use xlink:href="#b" x="-.004" y="43.395"/><use xlink:href="#1" y="2.171"/><use xlink:href="#3" y="4.342"/><use xlink:href="#19" y="6.513"/><use xlink:href="#20" y="8.684"/><use xlink:href="#21" y="10.855"/><use xlink:href="#22" y="13.026"/><use xlink:href="#23" y="15.197"/><use xlink:href="#24" y="17.368"/><use xlink:href="#25" y="19.539"/><use xlink:href="#26" y="21.71"/><use xlink:href="#27" y="23.881"/><use xlink:href="#28" y="26.052"/><use xlink:href="#29" y="28.223"/><use xlink:href="#30" y="30.394"/><use xlink:href="#31" y="32.565"/><use xlink:href="#32" y="34.736"/><use xlink:href="#1" y="39.078"/><use xlink:href="#33" y="41.249"/></svg></svg></g></g></svg></svg>