<svg xmlns="http://www.w3.org/2000/svg" xmlns:xlink="http://www.w3.org/1999/xlink" width="850" height="711.3"><rect width="850" height="711.3" rx="5" ry="5" class="a"/><svg y="0%" x="0%"><circle cx="20" cy="20" r="6" fill="#ff5f58"/><circle cx="40" cy="20" r="6" fill="#ffbd2e"/><circle cx="60" cy="20" r="6" fill="#18c132"/></svg><svg height="651.3" viewBox="0 0 80 65.13" width="800" x="20" xmlns="http://www.w3.org/2000/svg" xmlns:xlink="http://www.w3.org/1999/xlink" y="50"><style>@keyframes n{0%{transform:translateX(0)}.3%{transform:translateX(-80px)}1.2%{transform:translateX(-160px)}12.2%{transform:translateX(-240px)}12.8%{transform:translateX(-320px)}14%{transform:translateX(-400px)}17.3%{transform:translateX(-480px)}20%{transform:translateX(-560px)}20.7%{transform:translateX(-640px)}21.1%{transform:translateX(-720px)}26%{transform:translateX(-800px)}29%{transform:translateX(-880px)}30.9%{transform:translateX(-960px)}32.9%{transform:translateX(-1040px)}33.7%{transform:translateX(-1120px)}38.1%{transform:translateX(-1200px)}42.8%{transform:translateX(-1280px)}43.4%{transform:translateX(-1360px)}45.4%{transform:translateX(-1440px)}46.7%{transform:translateX(-1520px)}50.9%{transform:translateX(-1600px)}53.6%{transform:translateX(-1680px)}54.4%{transform:translateX(-1760px)}56.1%{transform:translateX(-1840px)}58.6%{transform:translateX(-1920px)}66.2%{transform:translateX(-2000px)}70.9%{transform:translateX(-2080px)}73.5%{transform:translateX(-2160px)}75.5%{transform:translateX(-2240px)}76.8%{transform:translateX(-2320px)}79.4%{transform:translateX(-2560px)}79.7%{transform:translateX(-2640px)}79.8%{transform:translateX(-3040px)}79.9%{transform:translateX(-3200px)}80.2%{transform:translateX(-3360px)}to{transform:translateX(-3440px)}}.a{fill:#212121}.g{fill:#e54b4b}.h{fill:#9ece58}.i{fill:#eceff1}.p{fill:#e54b4b;font-weight:700}</style><g font-size="1.67" font-family="Monaco,Consolas,Menlo,'Bitstream Vera Sans Mono','Powerline Symbols',monospace"><defs><symbol id="1"><text y="1.67" fill="#396fe2">~/demo/bitbrew</text></symbol><symbol id="2"><text y="1.67" class="g">❯</text><text x="2.004" y="1.67" class="h">bitbrew</text></symbol><symbol id="3"><text y="1.67" class="g">❯</text><text x="2.004" y="1.67" class="h">bitbrew</text><text x="10.02" y="1.67" class="i">uninstall</text></symbol><symbol id="4"><text y="1.67" class="g">❯</text><text x="2.004" y="1.67" class="h">bitbrew</text><text x="10.02" y="1.67" class="i">uninstall</text><text x="20.04" y="1.67" class="i">mas.1d.sh</text></symbol><symbol id="5"><text y="1.67" fill="#d0d0d0">⠋</text><text x="3.006" y="1.67" class="i">Uninstalling...</text></symbol><symbol id="6"><text y="1.67" class="h">✔</text><text x="2.004" y="1.67" class="h">mas.1d.sh</text><text x="12.024" y="1.67" class="h">uninstalled!</text></symbol><symbol id="7"><text y="1.67" fill="#bb80b3">❯</text></symbol><symbol id="a"><path fill="transparent" d="M0 0h80v31H0z"/></symbol><symbol id="b"><path fill="#64ffff" d="M0 0h1.102v2.171H0z"/></symbol></defs><path class="a" d="M0 0h80v65.13H0z"/><g style="animation-duration:10.112283000000001s;animation-iteration-count:infinite;animation-name:n;animation-timing-function:steps(1,end)"><svg width="3520"><svg><use xlink:href="#a"/><use xlink:href="#b" x="-.004"/></svg><svg x="80"><use xlink:href="#a"/><use xlink:href="#b" x="-.004"/></svg><svg x="160"><use xlink:href="#a"/><use xlink:href="#b" x="1.996" y="4.317"/><use xlink:href="#1" y="2.171"/><text y="6.012" class="g">❯</text></svg><svg x="240"><use xlink:href="#a"/><use xlink:href="#b" x="2.996" y="4.317"/><use xlink:href="#1" y="2.171"/><text y="6.012" class="g">❯</text><text x="2.004" y="6.012" class="p">b</text></svg><svg x="320"><use xlink:href="#a"/><use xlink:href="#b" x="3.996" y="4.317"/><use xlink:href="#1" y="2.171"/><text y="6.012" class="g">❯</text><text x="2.004" y="6.012" class="p">bi</text></svg><svg x="400"><use xlink:href="#a"/><use xlink:href="#b" x="4.996" y="4.317"/><use xlink:href="#1" y="2.171"/><text y="6.012" class="g">❯</text><text x="2.004" y="6.012" class="p">bit</text></svg><svg x="480"><use xlink:href="#a"/><use xlink:href="#b" x="5.996" y="4.317"/><use xlink:href="#1" y="2.171"/><text y="6.012" class="g">❯</text><text x="2.004" y="6.012" class="p">bitb</text></svg><svg x="560"><use xlink:href="#a"/><use xlink:href="#b" x="6.996" y="4.317"/><use xlink:href="#1" y="2.171"/><text y="6.012" class="g">❯</text><text x="2.004" y="6.012" class="p">bitbr</text></svg><svg x="640"><use xlink:href="#a"/><use xlink:href="#b" x="7.996" y="4.317"/><use xlink:href="#1" y="2.171"/><text y="6.012" class="g">❯</text><text x="2.004" y="6.012" class="p">bitbre</text></svg><svg x="720"><use xlink:href="#a"/><use xlink:href="#b" x="8.996" y="4.317"/><use xlink:href="#1" y="2.171"/><use xlink:href="#2" y="4.342"/></svg><svg x="800"><use xlink:href="#a"/><use xlink:href="#b" x="9.996" y="4.317"/><use xlink:href="#1" y="2.171"/><use xlink:href="#2" y="4.342"/></svg><svg x="880"><use xlink:href="#a"/><use xlink:href="#b" x="10.996" y="4.317"/><use xlink:href="#1" y="2.171"/><text y="6.012" class="g">❯</text><text x="2.004" y="6.012" class="h">bitbrew</text><text x="10.02" y="6.012" class="i">u</text></svg><svg x="960"><use xlink:href="#a"/><use xlink:href="#b" x="11.996" y="4.317"/><use xlink:href="#1" y="2.171"/><text y="6.012" class="g">❯</text><text x="2.004" y="6.012" class="h">bitbrew</text><text x="10.02" y="6.012" class="i">un</text></svg><svg x="1040"><use xlink:href="#a"/><use xlink:href="#b" x="12.996" y="4.317"/><use xlink:href="#1" y="2.171"/><text y="6.012" class="g">❯</text><text x="2.004" y="6.012" class="h">bitbrew</text><text x="10.02" y="6.012" class="i">uni</text></svg><svg x="1120"><use xlink:href="#a"/><use xlink:href="#b" x="13.996" y="4.317"/><use xlink:href="#1" y="2.171"/><text y="6.012" class="g">❯</text><text x="2.004" y="6.012" class="h">bitbrew</text><text x="10.02" y="6.012" class="i">unin</text></svg><svg x="1200"><use xlink:href="#a"/><use xlink:href="#b" x="14.996" y="4.317"/><use xlink:href="#1" y="2.171"/><text y="6.012" class="g">❯</text><text x="2.004" y="6.012" class="h">bitbrew</text><text x="10.02" y="6.012" class="i">unins</text></svg><svg x="1280"><use xlink:href="#a"/><use xlink:href="#b" x="15.996" y="4.317"/><use xlink:href="#1" y="2.171"/><text y="6.012" class="g">❯</text><text x="2.004" y="6.012" class="h">bitbrew</text><text x="10.02" y="6.012" class="i">uninst</text></svg><svg x="1360"><use xlink:href="#a"/><use xlink:href="#b" x="16.996" y="4.317"/><use xlink:href="#1" y="2.171"/><text y="6.012" class="g">❯</text><text x="2.004" y="6.012" class="h">bitbrew</text><text x="10.02" y="6.012" class="i">uninsta</text></svg><svg x="1440"><use xlink:href="#a"/><use xlink:href="#b" x="17.996" y="4.317"/><use xlink:href="#1" y="2.171"/><text y="6.012" class="g">❯</text><text x="2.004" y="6.012" class="h">bitbrew</text><text x="10.02" y="6.012" class="i">uninstal</text></svg><svg x="1520"><use xlink:href="#a"/><use xlink:href="#b" x="18.996" y="4.317"/><use xlink:href="#1" y="2.171"/><use xlink:href="#3" y="4.342"/></svg><svg x="1600"><use xlink:href="#a"/><use xlink:href="#b" x="19.996" y="4.317"/><use xlink:href="#1" y="2.171"/><use xlink:href="#3" y="4.342"/></svg><svg x="1680"><use xlink:href="#a"/><use xlink:href="#b" x="20.996" y="4.317"/><use xlink:href="#1" y="2.171"/><text y="6.012" class="g">❯</text><text x="2.004" y="6.012" class="h">bitbrew</text><text x="10.02" y="6.012" class="i">uninstall</text><text x="20.04" y="6.012" class="i">m</text></svg><svg x="1760"><use xlink:href="#a"/><use xlink:href="#b" x="21.996" y="4.317"/><use xlink:href="#1" y="2.171"/><text y="6.012" class="g">❯</text><text x="2.004" y="6.012" class="h">bitbrew</text><text x="10.02" y="6.012" class="i">uninstall</text><text x="20.04" y="6.012" class="i">ma</text></svg><svg x="1840"><use xlink:href="#a"/><use xlink:href="#b" x="22.996" y="4.317"/><use xlink:href="#1" y="2.171"/><text y="6.012" class="g">❯</text><text x="2.004" y="6.012" class="h">bitbrew</text><text x="10.02" y="6.012" class="i">uninstall</text><text x="20.04" y="6.012" class="i">mas</text></svg><svg x="1920"><use xlink:href="#a"/><use xlink:href="#b" x="23.996" y="4.317"/><use xlink:href="#1" y="2.171"/><text y="6.012" class="g">❯</text><text x="2.004" y="6.012" class="h">bitbrew</text><text x="10.02" y="6.012" class="i">uninstall</text><text x="20.04" y="6.012" class="i">mas.</text></svg><svg x="2000"><use xlink:href="#a"/><use xlink:href="#b" x="24.996" y="4.317"/><use xlink:href="#1" y="2.171"/><text y="6.012" class="g">❯</text><text x="2.004" y="6.012" class="h">bitbrew</text><text x="10.02" y="6.012" class="i">uninstall</text><text x="20.04" y="6.012" class="i">mas.1</text></svg><svg x="2080"><use xlink:href="#a"/><use xlink:href="#b" x="25.996" y="4.317"/><use xlink:href="#1" y="2.171"/><text y="6.012" class="g">❯</text><text x="2.004" y="6.012" class="h">bitbrew</text><text x="10.02" y="6.012" class="i">uninstall</text><text x="20.04" y="6.012" class="i">mas.1d</text></svg><svg x="2160"><use xlink:href="#a"/><use xlink:href="#b" x="26.996" y="4.317"/><use xlink:href="#1" y="2.171"/><text y="6.012" class="g">❯</text><text x="2.004" y="6.012" class="h">bitbrew</text><text x="10.02" y="6.012" class="i">uninstall</text><text x="20.04" y="6.012" class="i">mas.1d.</text></svg><svg x="2240"><use xlink:href="#a"/><use xlink:href="#b" x="27.996" y="4.317"/><use xlink:href="#1" y="2.171"/><text y="6.012" class="g">❯</text><text x="2.004" y="6.012" class="h">bitbrew</text><text x="10.02" y="6.012" class="i">uninstall</text><text x="20.04" y="6.012" class="i">mas.1d.s</text></svg><svg x="2320"><use xlink:href="#a"/><use xlink:href="#b" x="28.996" y="4.317"/><use xlink:href="#1" y="2.171"/><use xlink:href="#4" y="4.342"/></svg><svg x="2400"><use xlink:href="#a"/><use xlink:href="#b" x="-.004" y="6.488"/><use xlink:href="#1" y="2.171"/><use xlink:href="#4" y="4.342"/></svg><svg x="2480"><use xlink:href="#a"/><use xlink:href="#b" x="-.004" y="6.488"/><use xlink:href="#1" y="2.171"/><use xlink:href="#4" y="4.342"/></svg><svg x="2560"><use xlink:href="#a"/><use xlink:href="#b" x="-.004" y="6.488"/><use xlink:href="#1" y="2.171"/><use xlink:href="#4" y="4.342"/></svg><svg x="2640"><use xlink:href="#a"/><use xlink:href="#b" x="-.004" y="6.488"/><use xlink:href="#1" y="2.171"/><use xlink:href="#4" y="4.342"/></svg><svg x="2720"><use xlink:href="#a"/><use xlink:href="#1" y="2.171"/><use xlink:href="#4" y="4.342"/></svg><svg x="2800"><use xlink:href="#a"/><use xlink:href="#1" y="2.171"/><use xlink:href="#4" y="4.342"/><use xlink:href="#5" y="6.513"/></svg><svg x="2880"><use xlink:href="#a"/><use xlink:href="#b" x="10.996" y="6.488"/><use xlink:href="#1" y="2.171"/><use xlink:href="#4" y="4.342"/><use xlink:href="#5" y="6.513"/></svg><svg x="2960"><use xlink:href="#a"/><use xlink:href="#b" x="-.004" y="6.488"/><use xlink:href="#1" y="2.171"/><use xlink:href="#4" y="4.342"/></svg><svg x="3040"><use xlink:href="#a"/><use xlink:href="#b" x="-.004" y="8.659"/><use xlink:href="#1" y="2.171"/><use xlink:href="#4" y="4.342"/><use xlink:href="#6" y="6.513"/></svg><svg x="3120"><use xlink:href="#a"/><use xlink:href="#b" x="-.004" y="8.659"/><use xlink:href="#1" y="2.171"/><use xlink:href="#4" y="4.342"/><use xlink:href="#6" y="6.513"/></svg><svg x="3200"><use xlink:href="#a"/><use xlink:href="#b" x="-.004" y="8.659"/><use xlink:href="#1" y="2.171"/><use xlink:href="#4" y="4.342"/><use xlink:href="#6" y="6.513"/></svg><svg x="3280"><use xlink:href="#a"/><use xlink:href="#b" x="-.004" y="8.659"/><use xlink:href="#1" y="2.171"/><use xlink:href="#4" y="4.342"/><use xlink:href="#6" y="6.513"/></svg><svg x="3360"><use xlink:href="#a"/><use xlink:href="#b" x="1.996" y="13.001"/><use xlink:href="#1" y="2.171"/><use xlink:href="#4" y="4.342"/><use xlink:href="#6" y="6.513"/><use xlink:href="#1" y="10.855"/><use xlink:href="#7" y="13.026"/></svg><svg x="3440"><use xlink:href="#a"/><use xlink:href="#b" x="-.004" y="15.172"/><use xlink:href="#1" y="2.171"/><use xlink:href="#4" y="4.342"/><use xlink:href="#6" y="6.513"/><use xlink:href="#1" y="10.855"/><use xlink:href="#7" y="13.026"/></svg></svg></g></g></svg></svg>